<svg xmlns="http://www.w3.org/2000/svg" viewBox="0 0 128 128" role="img" aria-label="Male avatar">
  <defs>
    <linearGradient id="bg" x1="0" y1="0" x2="1" y2="1">
      <stop offset="0" stop-color="#eef2ff"/>
      <stop offset="1" stop-color="#e0e7ff"/>
    </linearGradient>
  </defs>
  <circle cx="64" cy="64" r="64" fill="url(#bg)"/>
  <circle cx="64" cy="50" r="22" fill="#f3c29f"/>
  <path d="M42 46c0-14 10-24 22-24s22 10 22 24c0-6-8-9-22-9s-22 3-22 9z" fill="#3f3d56"/>
  <path d="M28 112c4-22 18-32 36-32s32 10 36 32a64 64 0 0 1-72 0z" fill="#4f46e5"/>
  <path d="M52 84c3 5 8 8 12 8s9-3 12-8c-3-2-7-4-12-4s-9 2-12 4z" fill="#ffffff"/>
</svg>
